{"title":"Irene Huss, The Night Round 2008 DVDrip Swedish Klam","uid":6891829,"size":1569340940,"categoryP":"video","categoryS":"movies","magnet":"?xt=urn:btih:708066a46416ea79d6f5fb17f8751962fb85ba0b&amp;dn=Irene+Huss%2C+The+Night+Round+2008+DVDrip+Swedish+Klam&amp;tr=udp%3A%2F%2Ftracker.openbittorrent.com%3A80&amp;tr=udp%3A%2F%2Fopen.demonii.com%3A1337&amp;tr=udp%3A%2F%2Ftracker.coppersurfer.tk%3A6969&amp;tr=udp%3A%2F%2Fexodus.desync.com%3A6969","seeders":0,"leechers":0,"uploader":"Klambake","files":-1,"time":1324046047,"description":"With: Angela Kovacs, Lars Brandeby and Anki LidÃƒÂ©n\n\nMedewerkers van een prive-ziekenhuis vinden een van de verpleegsters vermoord tijdens een stroomstoring. Een getuige beweert de moordenaar te hebben gezien: Een vrouw die zichzelf opgehangen heeft in het ziekenhuis 60 jaar geleden.\n\nEmployees at a private hospital find one of the nurses killed during a power-outage. One witness claims to have seen the killer: A woman who hanged herself in the hospital 60 years ago. \n\nEnglish softsubs (srt) included.\n\n------------------------ Dutch Friends ------------------------\n---------------------------------------------------------------\n- Bezoek ook eens mijn vrienden op: &lt;a href=&quot; http://www.Film-Test.nl&quot; rel=&quot;nofollow&quot; target=&quot;_NEW&quot;&gt; http://www.Film-Test.nl&lt;/a&gt; --\n----- voor mijn Nederlandse Sync. ondertitels ---- en meer ----\n------- http://www.Film-Test.nl ---- voor Films en meer -------\n---------------------------------------------------------------\n\nGeneral:\n\nComplete name                    : Irene Huss, The Night Round\\The Night Round.avi\nFormat                           : AVI\nFormat/Info                      : Audio Video Interleave\nFile size                        : 1.46 GiB\nDuration                         : 1h 29mn\nOverall bit rate                 : 2 341 Kbps\n\nVideo:\n\nFormat                           : MPEG-4 Visual\nFormat profile                   : Simple@L3\nFormat settings, BVOP            : No\nFormat settings, QPel            : No\nFormat settings, GMC             : No warppoints\nFormat settings, Matrix          : Default (H.263)\nCodec ID                         : XVID\nCodec ID/Hint                    : XviD\nDuration                         : 1h 29mn\nBit rate                         : 1 882 Kbps\nWidth                            : 652 pixels\nHeight                           : 352 pixels\nDisplay aspect ratio             : 1.852\nFrame rate                       : 25.000 fps\nColor space                      : YUV\nChroma subsampling               : 4:2:0\nBit depth                        : 8 bits\nScan type                        : Progressive\nCompression mode                 : Lossy\nBits/(Pixel*Frame)               : 0.328\nStream size                      : 1.17 GiB (80%)\nWriting library                  : XviD 1.1.2 (UTC 2006-11-01)\n\nAudio:\n\nFormat                           : AC-3\nFormat/Info                      : Audio Coding 3\nMode extension                   : CM (complete main)\nCodec ID                         : 2000\nDuration                         : 1h 29mn\nBit rate mode                    : Constant\nBit rate                         : 448 Kbps\nChannel(s)                       : 6 channels\nChannel positions                : Front: L C R, Side: L R, LFE\nSampling rate                    : 48.0 KHz\nBit depth                        : 16 bits\nCompression mode                 : Lossy\nStream size                      : 286 MiB (19%)\nAlignment                        : Aligned on interleaves\nInterleave, duration             : 32 ms (0.80 video frame)\nInterleave, preload duration     : 32 ms\n","torrent":{"xt":"urn:btih:708066a46416ea79d6f5fb17f8751962fb85ba0b","amp;dn":"Irene+Huss%2C+The+Night+Round+2008+DVDrip+Swedish+Klam","amp;tr":["udp%3A%2F%2Ftracker.openbittorrent.com%3A80","udp%3A%2F%2Fopen.demonii.com%3A1337","udp%3A%2F%2Ftracker.coppersurfer.tk%3A6969","udp%3A%2F%2Fexodus.desync.com%3A6969"],"infoHash":"708066a46416ea79d6f5fb17f8751962fb85ba0b","infoHashBuffer":{"type":"Buffer","data":[112,128,102,164,100,22,234,121,214,245,251,23,248,117,25,98,251,133,186,11]},"announce":[],"urlList":[]}}